<?xml version="1.0"?>
<!DOCTYPE svg PUBLIC "-//W3C//DTD SVG 1.1//EN" "http://www.w3.org/Graphics/SVG/1.1/DTD/svg11.dtd">
<svg width="1024px" height="1024px" viewBox="0 0 1024 1024" xmlns="http://www.w3.org/2000/svg" version="1.1">
<desc>UV-Map from Object: Soldado. Exported from Blender3D with UV Exportscript</desc>
<rect x="0" y="0" width="1024" height="1024" fill="none" stroke="blue" stroke-width="1px" />
<g style="fill:#F2DAF2; stroke:black; stroke-width:1px;">
<polygon points="600.643,377.449 634.621,324.206 640.113,333.237 " />
<polygon points="600.643,377.449 640.113,333.237 608.077,380.962 " />
<polygon points="432.762,913.326 445.018,871.641 437.743,939.584 " />
<polygon points="437.743,939.584 464.922,921.201 467.653,940.682 " />
<polygon points="608.077,380.962 640.113,333.237 612.896,331.198 " />
<polygon points="490.824,131.836 507.909,99.368 543.273,105.726 " />
<polygon points="427.175,736.478 435.766,779.368 445.018,871.641 " />
<polygon points="608.077,380.962 612.896,331.198 584.049,421.318 " />
<polygon points="495.654,591.662 511.952,559.158 505.745,640.148 " />
<polygon points="587.978,946.572 554.186,942.859 553.514,950.671 " />
<polygon points="612.101,257.569 546.825,223.751 558.337,223.577 " />
<polygon points="612.101,257.569 558.337,223.577 627.833,249.077 " />
<polygon points="596.610,723.913 599.809,658.233 590.069,869.252 " />
<polygon points="615.264,566.213 599.535,456.388 600.270,453.561 " />
<polygon points="497.577,578.762 465.235,541.282 459.593,707.254 " />
<polygon points="627.833,249.077 558.337,223.577 611.666,257.073 " />
<polygon points="401.657,632.663 410.028,584.085 427.479,701.521 " />
<polygon points="567.999,691.803 543.068,705.303 550.797,863.614 " />
<polygon points="439.336,417.873 408.165,330.506 397.776,342.660 " />
<polygon points="439.336,417.873 397.776,342.660 425.520,445.088 " />
<polygon points="945.361,303.749 946.043,281.058 950.671,296.870 " />
<polygon points="397.776,342.660 402.686,330.944 423.907,378.298 " />
<polygon points="425.520,445.088 397.776,342.660 423.907,378.298 " />
<polygon points="600.270,453.561 608.077,380.962 584.049,421.318 " />
<polygon points="946.043,281.058 948.586,275.536 950.671,296.870 " />
<polygon points="434.531,947.077 453.677,948.896 436.973,947.742 " />
<polygon points="590.069,869.252 568.648,865.948 558.472,919.448 " />
<polygon points="412.409,257.192 466.419,224.102 394.064,249.395 " />
<polygon points="464.922,921.201 478.903,918.475 467.653,940.682 " />
<polygon points="457.851,124.318 459.831,101.649 450.540,123.938 " />
<polygon points="394.064,249.395 466.419,224.102 474.621,227.025 " />
<polygon points="394.064,249.395 474.621,227.025 411.882,257.630 " />
<polygon points="416.292,506.709 455.761,449.506 444.352,524.157 " />
<polygon points="474.621,227.025 466.419,224.102 480.405,208.266 " />
<polygon points="536.074,754.093 552.720,706.145 543.826,779.188 " />
<polygon points="568.648,865.948 550.797,863.614 558.472,919.448 " />
<polygon points="507.742,214.491 506.714,254.867 611.666,257.073 " />
<polygon points="507.742,214.491 611.666,257.073 558.337,223.577 " />
<polygon points="570.491,948.897 584.047,940.655 587.978,946.572 " />
<polygon points="556.451,176.892 559.445,184.214 572.185,123.896 " />
<polygon points="511.952,559.158 515.980,541.514 531.059,634.597 " />
<polygon points="478.662,310.335 562.571,332.872 595.221,287.597 " />
<polygon points="506.714,254.867 478.662,310.335 595.221,287.597 " />
<polygon points="520.894,560.064 511.952,559.158 518.716,639.516 " />
<polygon points="595.221,287.597 562.571,332.872 612.896,331.198 " />
<polygon points="401.657,632.663 416.292,506.709 410.028,584.085 " />
<polygon points="230.396,258.669 232.508,266.752 75.414,275.536 " />
<polygon points="506.714,254.867 595.221,287.597 611.666,257.073 " />
<polygon points="427.175,736.478 445.018,871.641 432.762,913.326 " />
<polygon points="510.969,446.375 550.475,443.004 562.571,332.872 " />
<polygon points="478.662,310.335 510.969,446.375 562.571,332.872 " />
<polygon points="453.677,948.896 467.653,940.682 472.210,946.435 " />
<polygon points="562.571,332.872 550.475,443.004 584.049,421.318 " />
<polygon points="562.571,332.872 584.049,421.318 612.896,331.198 " />
<polygon points="543.688,207.990 528.506,211.409 544.375,130.918 " />
<polygon points="459.593,707.254 438.145,867.360 456.176,865.856 " />
<polygon points="466.419,224.102 412.409,257.192 506.714,254.867 " />
<polygon points="466.419,224.102 506.714,254.867 507.742,214.491 " />
<polygon points="550.475,443.004 590.644,527.652 584.049,421.318 " />
<polygon points="510.969,446.375 465.235,541.282 550.475,443.004 " />
<polygon points="478.903,918.475 470.837,923.778 472.210,946.435 " />
<polygon points="507.909,99.368 480.883,105.081 512.079,73.329 " />
<polygon points="547.738,865.927 579.903,921.117 551.828,937.956 " />
<polygon points="459.831,101.649 481.277,104.547 480.883,105.081 " />
<polygon points="405.605,291.051 408.165,330.506 478.662,310.335 " />
<polygon points="511.952,559.158 531.059,634.597 518.716,639.516 " />
<polygon points="412.409,257.192 405.605,291.051 478.662,310.335 " />
<polygon points="412.409,257.192 478.662,310.335 506.714,254.867 " />
<polygon points="551.828,937.956 584.047,940.655 570.491,948.897 " />
<polygon points="505.745,640.148 497.577,578.762 479.437,747.313 " />
<polygon points="543.273,105.726 512.079,73.329 544.127,104.303 " />
<polygon points="552.720,706.145 566.648,766.132 543.826,779.188 " />
<polygon points="408.165,330.506 439.336,417.873 474.572,427.448 " />
<polygon points="599.535,456.388 576.062,507.151 566.841,449.219 " />
<polygon points="456.176,865.856 438.145,867.360 444.173,919.424 " />
<polygon points="408.165,330.506 474.572,427.448 478.662,310.335 " />
<polygon points="439.336,417.873 435.103,523.362 474.572,427.448 " />
<polygon points="444.352,524.157 507.338,495.319 515.980,541.514 " />
<polygon points="478.662,310.335 474.572,427.448 510.969,446.375 " />
<polygon points="472.210,946.435 454.908,942.125 436.973,947.742 " />
<polygon points="478.903,918.475 472.760,872.116 470.837,923.778 " />
<polygon points="515.796,305.742 621.373,293.194 561.149,370.201 " />
<polygon points="507.338,495.319 515.796,305.742 561.149,370.201 " />
<polygon points="507.338,495.319 561.149,370.201 566.841,449.219 " />
<polygon points="561.149,370.201 621.373,293.194 634.621,324.206 " />
<polygon points="561.149,370.201 634.621,324.206 600.643,377.449 " />
<polygon points="566.841,449.219 561.149,370.201 600.643,377.449 " />
<polygon points="458.861,766.595 476.331,862.149 445.018,871.641 " />
<polygon points="515.796,305.742 528.506,211.409 546.825,223.751 " />
<polygon points="515.796,305.742 546.825,223.751 621.373,293.194 " />
<polygon points="488.668,737.446 479.437,747.313 472.760,872.116 " />
<polygon points="563.260,102.872 544.127,104.303 556.291,101.899 " />
<polygon points="621.373,293.194 546.825,223.751 612.101,257.569 " />
<polygon points="515.980,541.514 576.062,507.151 580.003,574.496 " />
<polygon points="512.079,73.329 481.277,104.547 515.813,97.734 " />
<polygon points="511.952,559.158 497.577,578.762 505.745,640.148 " />
<polygon points="453.677,948.896 472.210,946.435 436.973,947.742 " />
<polygon points="599.809,658.233 567.999,691.803 590.069,869.252 " />
<polygon points="550.797,863.614 547.738,865.927 551.828,937.956 " />
<polygon points="487.062,124.313 481.277,104.547 459.831,101.649 " />
<polygon points="444.173,919.424 436.973,947.742 454.908,942.125 " />
<polygon points="561.233,552.614 543.068,705.303 567.999,691.803 " />
<polygon points="480.405,208.266 488.500,206.325 467.163,174.372 " />
<polygon points="537.587,206.980 559.445,184.214 556.451,176.892 " />
<polygon points="423.907,378.298 402.686,330.944 461.125,303.863 " />
<polygon points="584.047,940.655 593.600,918.353 587.978,946.572 " />
<polygon points="544.375,130.918 543.273,105.726 563.260,102.872 " />
<polygon points="461.125,303.863 455.761,449.506 423.907,378.298 " />
<polygon points="551.828,937.956 570.491,948.897 553.514,950.671 " />
<polygon points="615.264,566.213 622.929,631.107 592.958,703.726 " />
<polygon points="455.761,449.506 461.125,303.863 515.796,305.742 " />
<polygon points="455.761,449.506 515.796,305.742 507.338,495.319 " />
<polygon points="388.277,289.189 411.882,257.630 474.621,227.025 " />
<polygon points="388.277,289.189 474.621,227.025 461.125,303.863 " />
<polygon points="402.686,330.944 388.277,289.189 461.125,303.863 " />
<polygon points="465.235,541.282 419.672,650.143 459.593,707.254 " />
<polygon points="461.125,303.863 474.621,227.025 528.506,211.409 " />
<polygon points="461.125,303.863 528.506,211.409 515.796,305.742 " />
<polygon points="559.445,184.214 564.674,126.698 572.185,123.896 " />
<polygon points="488.668,737.446 472.760,872.116 476.331,862.149 " />
<polygon points="490.824,131.836 543.273,105.726 544.375,130.918 " />
<polygon points="458.861,766.595 481.232,773.185 476.331,862.149 " />
<polygon points="445.590,581.606 495.654,591.662 474.861,707.485 " />
<polygon points="487.062,124.313 515.813,97.734 481.277,104.547 " />
<polygon points="472.760,872.116 456.176,865.856 444.173,919.424 " />
<polygon points="474.621,227.025 499.883,207.971 528.506,211.409 " />
<polygon points="499.883,207.971 463.069,180.282 493.302,178.574 " />
<polygon points="423.907,378.298 455.761,449.506 416.292,506.709 " />
<polygon points="394.064,249.395 411.882,257.630 310.211,256.681 " />
<polygon points="579.444,872.503 590.069,869.252 593.600,918.353 " />
<polygon points="579.444,872.503 593.600,918.353 579.903,921.117 " />
<polygon points="412.409,257.192 394.064,249.395 312.720,254.515 " />
<polygon points="567.999,691.803 550.797,863.614 568.648,865.948 " />
<polygon points="394.064,249.395 310.211,256.681 307.932,238.171 " />
<polygon points="312.720,254.515 394.064,249.395 307.932,238.171 " />
<polygon points="467.163,174.372 487.062,124.313 457.851,124.318 " />
<polygon points="627.833,249.077 611.666,257.073 713.803,254.376 " />
<polygon points="437.743,939.584 453.677,948.896 434.531,947.077 " />
<polygon points="497.577,578.762 459.593,707.254 479.437,747.313 " />
<polygon points="612.101,257.569 627.833,249.077 713.122,254.200 " />
<polygon points="435.103,523.362 439.336,417.873 425.520,445.088 " />
<polygon points="627.833,249.077 713.803,254.376 717.517,237.915 " />
<polygon points="713.122,254.200 627.833,249.077 717.517,237.915 " />
<polygon points="481.232,773.185 488.668,737.446 476.331,862.149 " />
<polygon points="388.277,289.189 402.686,330.944 331.847,321.078 " />
<polygon points="236.167,265.917 230.396,258.669 75.414,275.536 " />
<polygon points="558.472,919.448 553.514,950.671 554.186,942.859 " />
<polygon points="411.882,257.630 388.277,289.189 310.211,256.681 " />
<polygon points="425.520,445.088 423.907,378.298 416.292,506.709 " />
<polygon points="388.277,289.189 331.847,321.078 307.164,287.215 " />
<polygon points="310.211,256.681 388.277,289.189 307.164,287.215 " />
<polygon points="466.419,224.102 488.500,206.325 480.405,208.266 " />
<polygon points="405.605,291.051 412.409,257.192 312.720,254.515 " />
<polygon points="405.605,291.051 312.720,254.515 317.519,287.860 " />
<polygon points="408.165,330.506 405.605,291.051 317.519,287.860 " />
<polygon points="408.165,330.506 317.519,287.860 324.289,318.104 " />
<polygon points="570.491,948.897 587.978,946.572 553.514,950.671 " />
<polygon points="459.831,101.649 480.883,105.081 467.192,103.230 " />
<polygon points="466.419,224.102 507.742,214.491 488.500,206.325 " />
<polygon points="465.235,541.282 435.103,523.362 419.672,650.143 " />
<polygon points="595.221,287.597 612.896,331.198 694.384,319.790 " />
<polygon points="595.221,287.597 694.384,319.790 706.360,287.438 " />
<polygon points="611.666,257.073 595.221,287.597 706.360,287.438 " />
<polygon points="611.666,257.073 706.360,287.438 713.803,254.376 " />
<polygon points="551.828,937.956 579.903,921.117 584.047,940.655 " />
<polygon points="479.437,747.313 459.593,707.254 456.176,865.856 " />
<polygon points="467.163,174.372 486.908,173.229 487.062,124.313 " />
<polygon points="518.716,639.516 552.720,706.145 536.074,754.093 " />
<polygon points="621.373,293.194 612.101,257.569 713.122,254.200 " />
<polygon points="438.145,867.360 434.531,947.077 444.173,919.424 " />
<polygon points="512.079,73.329 480.883,105.081 481.277,104.547 " />
<polygon points="511.952,559.158 520.894,560.064 497.577,578.762 " />
<polygon points="600.270,453.561 584.049,421.318 590.644,527.652 " />
<polygon points="621.373,293.194 713.122,254.200 717.192,287.057 " />
<polygon points="634.621,324.206 621.373,293.194 717.192,287.057 " />
<polygon points="634.621,324.206 717.192,287.057 725.898,321.887 " />
<polygon points="397.776,342.660 408.165,330.506 324.289,318.104 " />
<polygon points="397.776,342.660 324.289,318.104 352.814,330.421 " />
<polygon points="402.686,330.944 397.776,342.660 352.814,330.421 " />
<polygon points="402.686,330.944 352.814,330.421 331.847,321.078 " />
<polygon points="552.720,706.145 589.114,773.263 566.648,766.132 " />
<polygon points="352.814,330.421 324.289,318.104 295.869,335.439 " />
<polygon points="331.847,321.078 352.814,330.421 295.869,335.439 " />
<polygon points="599.535,456.388 615.264,566.213 576.062,507.151 " />
<polygon points="459.593,707.254 419.672,650.143 437.461,733.260 " />
<polygon points="444.352,524.157 515.980,541.514 495.654,591.662 " />
<polygon points="444.352,524.157 495.654,591.662 445.590,581.606 " />
<polygon points="612.896,331.198 640.113,333.237 694.384,319.790 " />
<polygon points="640.113,333.237 634.621,324.206 725.898,321.887 " />
<polygon points="640.113,333.237 725.898,321.887 732.053,335.134 " />
<polygon points="694.384,319.790 640.113,333.237 732.053,335.134 " />
<polygon points="450.540,123.938 467.192,103.230 458.619,128.255 " />
<polygon points="445.018,871.641 476.331,862.149 464.922,921.201 " />
<polygon points="432.762,913.326 437.743,939.584 434.531,947.077 " />
<polygon points="476.331,862.149 472.760,872.116 478.903,918.475 " />
<polygon points="694.384,319.790 732.053,335.134 783.631,313.416 " />
<polygon points="732.053,335.134 725.898,321.887 793.100,312.083 " />
<polygon points="732.053,335.134 793.100,312.083 795.955,320.300 " />
<polygon points="783.631,313.416 732.053,335.134 795.955,320.300 " />
<polygon points="556.451,176.892 572.185,123.896 556.803,126.012 " />
<polygon points="295.869,335.439 324.289,318.104 236.851,312.568 " />
<polygon points="558.337,223.577 543.688,207.990 537.587,206.980 " />
<polygon points="419.672,650.143 427.175,736.478 437.461,733.260 " />
<polygon points="331.847,321.078 295.869,335.439 233.108,313.440 " />
<polygon points="566.841,449.219 576.062,507.151 507.338,495.319 " />
<polygon points="295.869,335.439 236.851,312.568 229.904,320.507 " />
<polygon points="233.108,313.440 295.869,335.439 229.904,320.507 " />
<polygon points="528.506,211.409 493.302,178.574 544.375,130.918 " />
<polygon points="717.192,287.057 713.122,254.200 791.394,266.147 " />
<polygon points="622.929,631.107 600.270,453.561 590.644,527.652 " />
<polygon points="536.074,754.093 543.826,779.188 547.738,865.927 " />
<polygon points="599.809,658.233 561.233,552.614 567.999,691.803 " />
<polygon points="444.352,524.157 455.761,449.506 507.338,495.319 " />
<polygon points="717.192,287.057 791.394,266.147 793.473,288.904 " />
<polygon points="725.898,321.887 717.192,287.057 793.473,288.904 " />
<polygon points="725.898,321.887 793.473,288.904 793.100,312.083 " />
<polygon points="706.360,287.438 694.384,319.790 783.631,313.416 " />
<polygon points="706.360,287.438 783.631,313.416 784.433,290.377 " />
<polygon points="713.803,254.376 706.360,287.438 784.433,290.377 " />
<polygon points="713.803,254.376 784.433,290.377 790.131,266.972 " />
<polygon points="419.672,650.143 401.657,632.663 427.175,736.478 " />
<polygon points="550.475,443.004 561.233,552.614 590.644,527.652 " />
<polygon points="520.894,560.064 465.235,541.282 497.577,578.762 " />
<polygon points="543.273,105.726 507.909,99.368 512.079,73.329 " />
<polygon points="317.519,287.860 312.720,254.515 236.167,265.917 " />
<polygon points="317.519,287.860 236.167,265.917 240.221,288.642 " />
<polygon points="324.289,318.104 317.519,287.860 240.221,288.642 " />
<polygon points="324.289,318.104 240.221,288.642 236.851,312.568 " />
<polygon points="550.797,863.614 551.828,937.956 553.514,950.671 " />
<polygon points="465.235,541.282 520.894,560.064 561.233,552.614 " />
<polygon points="465.235,541.282 561.233,552.614 550.475,443.004 " />
<polygon points="77.956,281.058 75.414,275.536 73.329,296.870 " />
<polygon points="307.164,287.215 331.847,321.078 233.108,313.440 " />
<polygon points="307.164,287.215 233.108,313.440 231.850,290.045 " />
<polygon points="310.211,256.681 307.164,287.215 231.850,290.045 " />
<polygon points="310.211,256.681 231.850,290.045 232.508,266.752 " />
<polygon points="453.677,948.896 437.743,939.584 467.653,940.682 " />
<polygon points="474.861,707.485 488.668,737.446 481.232,773.185 " />
<polygon points="515.980,541.514 580.003,574.496 531.059,634.597 " />
<polygon points="622.929,631.107 599.809,658.233 596.610,723.913 " />
<polygon points="717.517,237.915 713.803,254.376 790.131,266.972 " />
<polygon points="435.103,523.362 401.657,632.663 419.672,650.143 " />
<polygon points="427.175,736.478 427.479,701.521 435.766,779.368 " />
<polygon points="713.122,254.200 717.517,237.915 791.394,266.147 " />
<polygon points="543.826,779.188 566.648,766.132 579.444,872.503 " />
<polygon points="717.517,237.915 790.131,266.972 797.539,258.898 " />
<polygon points="791.394,266.147 717.517,237.915 797.539,258.898 " />
<polygon points="490.824,131.836 467.192,103.230 507.909,99.368 " />
<polygon points="307.932,238.171 310.211,256.681 232.508,266.752 " />
<polygon points="307.932,238.171 232.508,266.752 230.396,258.669 " />
<polygon points="312.720,254.515 307.932,238.171 230.396,258.669 " />
<polygon points="312.720,254.515 230.396,258.669 236.167,265.917 " />
<polygon points="543.068,705.303 518.716,639.516 536.074,754.093 " />
<polygon points="585.473,923.775 554.186,942.859 587.978,946.572 " />
<polygon points="487.062,124.313 459.831,101.649 457.851,124.318 " />
<polygon points="593.600,918.353 590.069,869.252 585.473,923.775 " />
<polygon points="427.479,701.521 474.861,707.485 458.861,766.595 " />
<polygon points="444.173,919.424 434.531,947.077 436.973,947.742 " />
<polygon points="547.738,865.927 579.444,872.503 579.903,921.117 " />
<polygon points="590.644,527.652 561.233,552.614 599.809,658.233 " />
<polygon points="435.103,523.362 425.520,445.088 401.657,632.663 " />
<polygon points="518.716,639.516 531.059,634.597 552.720,706.145 " />
<polygon points="467.653,940.682 478.903,918.475 472.210,946.435 " />
<polygon points="531.697,173.818 556.451,176.892 556.803,126.012 " />
<polygon points="416.292,506.709 444.352,524.157 445.590,581.606 " />
<polygon points="437.461,733.260 427.175,736.478 438.145,867.360 " />
<polygon points="546.825,223.751 528.506,211.409 543.688,207.990 " />
<polygon points="543.688,207.990 544.375,130.918 559.445,184.214 " />
<polygon points="493.302,178.574 463.069,180.282 458.619,128.255 " />
<polygon points="544.375,130.918 493.302,178.574 490.824,131.836 " />
<polygon points="445.018,871.641 464.922,921.201 437.743,939.584 " />
<polygon points="572.185,123.896 563.260,102.872 556.291,101.899 " />
<polygon points="459.593,707.254 437.461,733.260 438.145,867.360 " />
<polygon points="427.479,701.521 445.590,581.606 474.861,707.485 " />
<polygon points="480.405,208.266 467.163,174.372 463.069,180.282 " />
<polygon points="435.103,523.362 465.235,541.282 474.572,427.448 " />
<polygon points="470.837,923.778 454.908,942.125 472.210,946.435 " />
<polygon points="564.674,126.698 563.260,102.872 572.185,123.896 " />
<polygon points="600.643,377.449 599.535,456.388 566.841,449.219 " />
<polygon points="559.445,184.214 544.375,130.918 564.674,126.698 " />
<polygon points="592.958,703.726 596.610,723.913 589.114,773.263 " />
<polygon points="580.003,574.496 615.264,566.213 592.958,703.726 " />
<polygon points="580.003,574.496 592.958,703.726 552.720,706.145 " />
<polygon points="576.062,507.151 515.980,541.514 507.338,495.319 " />
<polygon points="78.639,303.748 77.956,281.058 73.329,296.870 " />
<polygon points="479.437,747.313 456.176,865.856 472.760,872.116 " />
<polygon points="537.587,206.980 556.451,176.892 531.697,173.818 " />
<polygon points="474.572,427.448 465.235,541.282 510.969,446.375 " />
<polygon points="495.654,591.662 505.745,640.148 488.668,737.446 " />
<polygon points="531.059,634.597 580.003,574.496 552.720,706.145 " />
<polygon points="585.473,923.775 558.472,919.448 554.186,942.859 " />
<polygon points="474.861,707.485 481.232,773.185 458.861,766.595 " />
<polygon points="401.657,632.663 425.520,445.088 416.292,506.709 " />
<polygon points="512.079,73.329 515.813,97.734 544.127,104.303 " />
<polygon points="556.803,126.012 556.291,101.899 515.813,97.734 " />
<polygon points="493.302,178.574 458.619,128.255 490.824,131.836 " />
<polygon points="528.506,211.409 499.883,207.971 493.302,178.574 " />
<polygon points="615.264,566.213 600.270,453.561 622.929,631.107 " />
<polygon points="550.797,863.614 536.074,754.093 547.738,865.927 " />
<polygon points="520.894,560.064 518.716,639.516 543.068,705.303 " />
<polygon points="463.069,180.282 450.540,123.938 458.619,128.255 " />
<polygon points="499.883,207.971 480.405,208.266 463.069,180.282 " />
<polygon points="472.760,872.116 444.173,919.424 470.837,923.778 " />
<polygon points="572.185,123.896 556.291,101.899 556.803,126.012 " />
<polygon points="543.826,779.188 579.444,872.503 547.738,865.927 " />
<polygon points="589.114,773.263 596.610,723.913 590.069,869.252 " />
<polygon points="589.114,773.263 590.069,869.252 579.444,872.503 " />
<polygon points="476.331,862.149 478.903,918.475 464.922,921.201 " />
<polygon points="558.337,223.577 546.825,223.751 543.688,207.990 " />
<polygon points="463.069,180.282 467.163,174.372 457.851,124.318 " />
<polygon points="463.069,180.282 457.851,124.318 450.540,123.938 " />
<polygon points="427.479,701.521 458.861,766.595 435.766,779.368 " />
<polygon points="599.535,456.388 600.643,377.449 608.077,380.962 " />
<polygon points="543.068,705.303 536.074,754.093 550.797,863.614 " />
<polygon points="563.260,102.872 543.273,105.726 544.127,104.303 " />
<polygon points="590.069,869.252 558.472,919.448 585.473,923.775 " />
<polygon points="470.837,923.778 444.173,919.424 454.908,942.125 " />
<polygon points="458.619,128.255 467.192,103.230 490.824,131.836 " />
<polygon points="544.375,130.918 563.260,102.872 564.674,126.698 " />
<polygon points="488.500,206.325 531.697,173.818 486.908,173.229 " />
<polygon points="795.955,320.300 793.100,312.083 945.361,303.749 " />
<polygon points="599.535,456.388 608.077,380.962 600.270,453.561 " />
<polygon points="783.631,313.416 795.955,320.300 945.361,303.749 " />
<polygon points="783.631,313.416 945.361,303.749 950.671,296.870 " />
<polygon points="622.929,631.107 590.644,527.652 599.809,658.233 " />
<polygon points="556.803,126.012 515.813,97.734 487.062,124.313 " />
<polygon points="556.291,101.899 544.127,104.303 515.813,97.734 " />
<polygon points="416.292,506.709 445.590,581.606 410.028,584.085 " />
<polygon points="229.904,320.507 236.851,312.568 78.639,303.748 " />
<polygon points="579.903,921.117 593.600,918.353 584.047,940.655 " />
<polygon points="233.108,313.440 229.904,320.507 78.639,303.748 " />
<polygon points="233.108,313.440 78.639,303.748 73.329,296.870 " />
<polygon points="507.742,214.491 558.337,223.577 537.587,206.980 " />
<polygon points="488.500,206.325 537.587,206.980 531.697,173.818 " />
<polygon points="410.028,584.085 445.590,581.606 427.479,701.521 " />
<polygon points="537.587,206.980 543.688,207.990 559.445,184.214 " />
<polygon points="793.473,288.904 791.394,266.147 946.043,281.058 " />
<polygon points="236.167,265.917 75.414,275.536 77.956,281.058 " />
<polygon points="793.100,312.083 793.473,288.904 946.043,281.058 " />
<polygon points="793.100,312.083 946.043,281.058 945.361,303.749 " />
<polygon points="531.697,173.818 556.803,126.012 487.062,124.313 " />
<polygon points="590.069,869.252 567.999,691.803 568.648,865.948 " />
<polygon points="592.958,703.726 622.929,631.107 596.610,723.913 " />
<polygon points="593.600,918.353 585.473,923.775 587.978,946.572 " />
<polygon points="784.433,290.377 783.631,313.416 950.671,296.870 " />
<polygon points="438.145,867.360 432.762,913.326 434.531,947.077 " />
<polygon points="790.131,266.972 784.433,290.377 950.671,296.870 " />
<polygon points="790.131,266.972 950.671,296.870 948.586,275.536 " />
<polygon points="474.621,227.025 480.405,208.266 499.883,207.971 " />
<polygon points="486.908,173.229 531.697,173.818 487.062,124.313 " />
<polygon points="505.745,640.148 479.437,747.313 488.668,737.446 " />
<polygon points="561.233,552.614 520.894,560.064 543.068,705.303 " />
<polygon points="240.221,288.642 236.167,265.917 77.956,281.058 " />
<polygon points="495.654,591.662 488.668,737.446 474.861,707.485 " />
<polygon points="236.851,312.568 240.221,288.642 77.956,281.058 " />
<polygon points="236.851,312.568 77.956,281.058 78.639,303.748 " />
<polygon points="401.657,632.663 427.479,701.521 427.175,736.478 " />
<polygon points="515.980,541.514 511.952,559.158 495.654,591.662 " />
<polygon points="488.500,206.325 486.908,173.229 467.163,174.372 " />
<polygon points="576.062,507.151 615.264,566.213 580.003,574.496 " />
<polygon points="231.850,290.045 233.108,313.440 73.329,296.870 " />
<polygon points="435.766,779.368 458.861,766.595 445.018,871.641 " />
<polygon points="232.508,266.752 231.850,290.045 73.329,296.870 " />
<polygon points="232.508,266.752 73.329,296.870 75.414,275.536 " />
<polygon points="507.742,214.491 537.587,206.980 488.500,206.325 " />
<polygon points="438.145,867.360 427.175,736.478 432.762,913.326 " />
<polygon points="566.648,766.132 589.114,773.263 579.444,872.503 " />
<polygon points="550.797,863.614 553.514,950.671 558.472,919.448 " />
<polygon points="797.539,258.898 790.131,266.972 948.586,275.536 " />
<polygon points="552.720,706.145 592.958,703.726 589.114,773.263 " />
<polygon points="791.394,266.147 797.539,258.898 948.586,275.536 " />
<polygon points="791.394,266.147 948.586,275.536 946.043,281.058 " />
<polygon points="467.192,103.230 480.883,105.081 507.909,99.368 " />
<polygon points="450.540,123.938 459.831,101.649 467.192,103.230 " />
</g>
</svg>