<?xml version="1.0"?>
<!DOCTYPE svg PUBLIC "-//W3C//DTD SVG 1.1//EN" "http://www.w3.org/Graphics/SVG/1.1/DTD/svg11.dtd">
<svg width="1024px" height="1024px" viewBox="0 0 1024 1024" xmlns="http://www.w3.org/2000/svg" version="1.1">
<desc>UV-Map from Object: Soldado. Exported from Blender3D with UV Exportscript</desc>
<rect x="0" y="0" width="1024" height="1024" fill="none" stroke="blue" stroke-width="1px" />
<g style="fill:#F2DAF2; stroke:black; stroke-width:1px;">
<polygon points="579.842,391.706 615.029,327.159 601.374,347.297 " />
<polygon points="571.445,772.499 569.970,868.108 561.625,876.769 " />
<polygon points="603.894,641.834 572.013,534.379 587.033,657.378 " />
<polygon points="579.842,391.706 601.374,347.297 579.546,446.245 " />
<polygon points="587.033,657.378 550.094,678.316 567.605,737.243 " />
<polygon points="563.360,950.077 568.995,948.816 535.232,952.940 " />
<polygon points="579.546,446.245 601.374,347.297 592.931,334.543 " />
<polygon points="579.546,446.245 592.931,334.543 561.754,423.942 " />
<polygon points="465.266,190.389 536.110,188.628 519.818,164.246 " />
<polygon points="550.094,678.316 526.787,760.214 531.088,862.541 " />
<polygon points="591.388,260.749 526.202,215.172 539.430,226.648 " />
<polygon points="591.388,260.749 539.430,226.648 607.785,253.164 " />
<polygon points="573.471,922.796 540.128,922.670 568.995,948.816 " />
<polygon points="255.032,292.000 250.770,268.355 101.478,284.799 " />
<polygon points="477.373,209.758 536.110,188.628 465.266,190.389 " />
<polygon points="607.785,253.164 539.430,226.648 591.166,260.541 " />
<polygon points="421.625,783.984 452.709,764.122 460.676,875.463 " />
<polygon points="432.274,418.109 403.463,333.527 390.685,338.632 " />
<polygon points="432.274,418.109 390.685,338.632 419.150,454.853 " />
<polygon points="421.625,783.984 460.676,875.463 429.979,874.466 " />
<polygon points="536.110,188.628 544.888,187.209 549.504,125.025 " />
<polygon points="419.150,454.853 390.685,338.632 412.760,347.922 " />
<polygon points="492.878,554.025 498.777,642.188 478.120,713.932 " />
<polygon points="434.340,523.672 495.080,497.316 492.878,554.025 " />
<polygon points="429.921,526.992 432.274,418.109 419.150,454.853 " />
<polygon points="550.094,678.316 504.193,569.299 526.787,760.214 " />
<polygon points="398.260,268.702 460.530,227.179 389.595,253.403 " />
<polygon points="510.205,216.042 480.157,178.261 525.205,147.876 " />
<polygon points="571.445,772.499 581.361,794.018 569.970,868.108 " />
<polygon points="389.595,253.403 460.530,227.179 482.703,217.227 " />
<polygon points="482.703,217.227 393.009,264.015 389.595,253.403 " />
<polygon points="579.842,391.706 588.395,498.016 553.799,464.568 " />
<polygon points="519.818,164.246 536.110,188.628 540.111,130.235 " />
<polygon points="545.007,531.521 572.013,534.379 561.754,423.942 " />
<polygon points="437.291,710.032 452.709,764.122 421.625,783.984 " />
<polygon points="495.751,218.770 497.870,258.455 591.166,260.541 " />
<polygon points="495.751,218.770 591.166,260.541 539.430,226.648 " />
<polygon points="437.291,710.032 474.851,773.320 452.709,764.122 " />
<polygon points="432.274,418.109 463.430,493.031 488.842,409.900 " />
<polygon points="744.717,295.123 744.235,319.209 889.271,304.109 " />
<polygon points="456.219,319.912 544.922,337.063 580.284,289.549 " />
<polygon points="497.870,258.455 456.219,319.912 580.284,289.549 " />
<polygon points="474.851,773.320 478.120,713.932 483.694,794.018 " />
<polygon points="580.284,289.549 544.922,337.063 592.931,334.543 " />
<polygon points="520.154,713.654 542.706,707.464 549.248,763.878 " />
<polygon points="520.154,713.654 549.248,763.878 519.044,785.349 " />
<polygon points="497.870,258.455 580.284,289.549 591.166,260.541 " />
<polygon points="465.266,190.389 474.778,144.100 447.058,133.632 " />
<polygon points="488.842,409.900 561.754,423.942 544.922,337.063 " />
<polygon points="456.219,319.912 488.842,409.900 544.922,337.063 " />
<polygon points="245.358,325.983 250.805,317.916 108.526,309.453 " />
<polygon points="752.236,261.358 749.741,269.905 894.005,277.985 " />
<polygon points="544.922,337.063 561.754,423.942 592.931,334.543 " />
<polygon points="563.360,950.077 573.471,922.796 568.995,948.816 " />
<polygon points="463.430,493.031 455.435,564.281 504.193,569.299 " />
<polygon points="460.530,227.179 398.260,268.702 497.870,258.455 " />
<polygon points="460.530,227.179 497.870,258.455 495.751,218.770 " />
<polygon points="488.842,409.900 463.430,493.031 545.007,531.521 " />
<polygon points="519.818,164.246 540.111,130.235 474.778,144.100 " />
<polygon points="499.579,563.033 512.159,588.379 500.881,641.806 " />
<polygon points="248.857,294.721 249.353,319.501 109.970,304.109 " />
<polygon points="465.266,190.389 519.818,164.246 474.778,144.100 " />
<polygon points="525.386,93.452 473.224,90.323 525.079,89.547 " />
<polygon points="398.260,268.702 403.463,333.527 456.219,319.912 " />
<polygon points="545.007,531.521 504.193,569.299 550.094,678.316 " />
<polygon points="534.647,944.723 563.360,950.077 535.232,952.940 " />
<polygon points="398.260,268.702 456.219,319.912 497.870,258.455 " />
<polygon points="535.682,872.981 561.625,876.769 562.460,926.014 " />
<polygon points="434.340,523.672 443.967,462.472 495.080,497.316 " />
<polygon points="250.805,317.916 255.032,292.000 101.478,284.799 " />
<polygon points="588.395,498.016 579.546,446.245 603.894,641.834 " />
<polygon points="403.463,333.527 432.274,418.109 488.842,409.900 " />
<polygon points="403.463,333.527 488.842,409.900 456.219,319.912 " />
<polygon points="579.546,446.245 561.754,423.942 572.013,534.379 " />
<polygon points="409.767,507.149 443.967,462.472 434.340,523.672 " />
<polygon points="424.243,724.009 437.291,710.032 421.625,783.984 " />
<polygon points="495.751,218.770 539.430,226.648 523.184,210.539 " />
<polygon points="429.761,944.643 458.311,950.163 430.501,952.991 " />
<polygon points="535.682,872.981 562.460,926.014 534.647,944.723 " />
<polygon points="588.395,498.016 561.999,511.139 553.799,464.568 " />
<polygon points="553.799,464.568 561.999,511.139 495.080,497.316 " />
<polygon points="495.080,497.316 505.684,302.703 540.190,360.526 " />
<polygon points="495.080,497.316 540.190,360.526 553.799,464.568 " />
<polygon points="519.044,785.349 535.682,872.981 531.088,862.541 " />
<polygon points="540.190,360.526 615.029,327.159 579.842,391.706 " />
<polygon points="553.799,464.568 540.190,360.526 579.842,391.706 " />
<polygon points="588.395,498.016 579.842,391.706 579.546,446.245 " />
<polygon points="505.684,302.703 510.205,216.042 526.202,215.172 " />
<polygon points="510.205,216.042 482.703,217.227 480.157,178.261 " />
<polygon points="597.449,622.507 603.894,641.834 574.612,715.841 " />
<polygon points="498.777,642.188 488.731,592.613 471.328,749.020 " />
<polygon points="505.684,302.703 526.202,215.172 591.388,260.749 " />
<polygon points="505.684,302.703 591.388,260.749 614.165,295.087 " />
<polygon points="540.190,360.526 505.684,302.703 614.165,295.087 " />
<polygon points="540.190,360.526 614.165,295.087 615.029,327.159 " />
<polygon points="562.460,926.014 573.471,922.796 563.360,950.077 " />
<polygon points="540.111,130.235 549.504,125.025 525.079,89.547 " />
<polygon points="474.778,144.100 540.111,130.235 525.079,89.547 " />
<polygon points="542.706,707.464 571.445,772.499 549.248,763.878 " />
<polygon points="471.328,749.020 452.324,673.900 437.895,862.883 " />
<polygon points="430.010,742.644 429.979,874.466 437.895,862.883 " />
<polygon points="753.713,317.407 750.804,293.220 897.763,284.799 " />
<polygon points="396.487,647.965 403.149,615.104 437.291,710.032 " />
<polygon points="492.878,554.025 563.363,581.510 512.159,588.379 " />
<polygon points="526.787,760.214 519.044,785.349 531.088,862.541 " />
<polygon points="455.435,564.281 429.921,526.992 412.338,657.164 " />
<polygon points="412.760,347.922 456.475,310.725 443.967,462.472 " />
<polygon points="249.353,319.501 245.358,325.983 108.526,309.453 " />
<polygon points="249.353,319.501 108.526,309.453 109.970,304.109 " />
<polygon points="443.967,462.472 456.475,310.725 505.684,302.703 " />
<polygon points="443.967,462.472 505.684,302.703 495.080,497.316 " />
<polygon points="380.333,292.848 393.009,264.015 510.205,216.042 " />
<polygon points="380.333,292.848 510.205,216.042 456.475,310.725 " />
<polygon points="412.760,347.922 380.333,292.848 456.475,310.725 " />
<polygon points="409.767,507.149 412.760,347.922 443.967,462.472 " />
<polygon points="456.475,310.725 510.205,216.042 505.684,302.703 " />
<polygon points="504.193,569.299 520.154,713.654 526.787,760.214 " />
<polygon points="498.777,642.188 471.328,749.020 478.120,713.932 " />
<polygon points="419.150,454.853 412.760,347.922 409.767,507.149 " />
<polygon points="461.911,126.039 447.058,133.632 471.029,95.424 " />
<polygon points="393.009,264.015 482.703,217.227 510.205,216.042 " />
<polygon points="539.430,226.648 526.202,215.172 523.184,210.539 " />
<polygon points="471.090,923.589 463.688,926.805 465.027,948.701 " />
<polygon points="471.328,749.020 437.895,862.883 469.009,859.183 " />
<polygon points="587.033,657.378 545.007,531.521 550.094,678.316 " />
<polygon points="530.416,943.564 534.647,944.723 535.232,952.940 " />
<polygon points="525.386,93.452 471.029,95.424 473.224,90.323 " />
<polygon points="460.530,227.179 495.751,218.770 477.373,209.758 " />
<polygon points="250.770,268.355 247.376,261.425 105.235,277.985 " />
<polygon points="398.260,268.702 389.595,253.403 320.719,254.264 " />
<polygon points="389.595,253.403 393.009,264.015 315.546,254.625 " />
<polygon points="389.595,253.403 315.546,254.625 315.874,234.089 " />
<polygon points="320.719,254.264 389.595,253.403 315.874,234.089 " />
<polygon points="561.625,876.769 569.970,868.108 573.471,922.796 " />
<polygon points="607.785,253.164 591.166,260.541 681.497,254.644 " />
<polygon points="396.487,647.965 437.291,710.032 424.243,724.009 " />
<polygon points="429.979,874.466 460.676,875.463 458.951,926.101 " />
<polygon points="591.388,260.749 607.785,253.164 680.044,254.351 " />
<polygon points="504.193,569.299 500.881,641.806 520.154,713.654 " />
<polygon points="607.785,253.164 681.497,254.644 683.781,233.928 " />
<polygon points="680.044,254.351 607.785,253.164 683.781,233.928 " />
<polygon points="574.612,715.841 567.605,737.243 581.361,794.018 " />
<polygon points="380.333,292.848 412.760,347.922 334.667,328.016 " />
<polygon points="549.248,763.878 571.445,772.499 561.625,876.769 " />
<polygon points="452.984,183.570 447.058,133.632 461.911,126.039 " />
<polygon points="488.842,409.900 545.007,531.521 561.754,423.942 " />
<polygon points="519.044,785.349 549.248,763.878 561.625,876.769 " />
<polygon points="380.333,292.848 334.667,328.016 314.700,290.541 " />
<polygon points="393.009,264.015 380.333,292.848 314.700,290.541 " />
<polygon points="393.009,264.015 314.700,290.541 315.546,254.625 " />
<polygon points="437.895,862.883 426.019,943.565 437.283,922.710 " />
<polygon points="398.260,268.702 320.719,254.264 323.017,292.166 " />
<polygon points="403.463,333.527 398.260,268.702 323.017,292.166 " />
<polygon points="403.463,333.527 323.017,292.166 325.885,324.027 " />
<polygon points="561.625,876.769 573.471,922.796 562.460,926.014 " />
<polygon points="536.110,188.628 549.504,125.025 540.111,130.235 " />
<polygon points="429.921,526.992 419.150,454.853 396.487,647.965 " />
<polygon points="531.088,862.541 535.682,872.981 534.647,944.723 " />
<polygon points="580.284,289.549 592.931,334.543 665.937,326.385 " />
<polygon points="580.284,289.549 665.937,326.385 676.149,291.653 " />
<polygon points="591.166,260.541 580.284,289.549 676.149,291.653 " />
<polygon points="591.166,260.541 676.149,291.653 681.497,254.644 " />
<polygon points="248.156,269.590 248.857,294.721 109.970,304.109 " />
<polygon points="499.579,563.033 488.731,592.613 498.777,642.188 " />
<polygon points="531.088,862.541 534.647,944.723 530.416,943.564 " />
<polygon points="458.311,950.163 465.027,948.701 430.501,952.991 " />
<polygon points="614.165,295.087 591.388,260.749 680.044,254.351 " />
<polygon points="430.010,742.644 424.243,724.009 421.625,783.984 " />
<polygon points="488.731,592.613 452.324,673.900 471.328,749.020 " />
<polygon points="563.363,581.510 597.449,622.507 542.706,707.464 " />
<polygon points="478.120,713.932 471.328,749.020 483.694,794.018 " />
<polygon points="614.165,295.087 680.044,254.351 684.412,290.490 " />
<polygon points="615.029,327.159 614.165,295.087 684.412,290.490 " />
<polygon points="615.029,327.159 684.412,290.490 703.538,346.418 " />
<polygon points="390.685,338.632 403.463,333.527 325.885,324.027 " />
<polygon points="250.770,268.355 105.235,277.985 101.478,284.799 " />
<polygon points="483.694,794.018 471.328,749.020 469.009,859.183 " />
<polygon points="412.760,347.922 390.685,338.632 334.667,328.016 " />
<polygon points="603.894,641.834 579.546,446.245 572.013,534.379 " />
<polygon points="390.685,338.632 325.885,324.027 307.470,346.154 " />
<polygon points="334.667,328.016 390.685,338.632 307.470,346.154 " />
<polygon points="469.009,859.183 437.283,922.710 463.688,926.805 " />
<polygon points="601.374,347.297 615.029,327.159 674.382,356.060 " />
<polygon points="592.931,334.543 601.374,347.297 674.382,356.060 " />
<polygon points="592.931,334.543 674.382,356.060 665.937,326.385 " />
<polygon points="674.382,356.060 615.029,327.159 703.538,346.418 " />
<polygon points="750.790,268.418 752.236,261.358 894.005,277.985 " />
<polygon points="750.790,268.418 894.005,277.985 897.763,284.799 " />
<polygon points="432.274,418.109 429.921,526.992 463.430,493.031 " />
<polygon points="452.709,764.122 474.851,773.320 460.676,875.463 " />
<polygon points="674.382,356.060 703.538,346.418 751.043,326.424 " />
<polygon points="665.937,326.385 674.382,356.060 751.043,326.424 " />
<polygon points="665.937,326.385 751.043,326.424 744.235,319.209 " />
<polygon points="751.043,326.424 703.538,346.418 753.713,317.407 " />
<polygon points="460.530,227.179 477.373,209.758 471.368,212.029 " />
<polygon points="248.156,269.590 109.970,304.109 105.235,277.985 " />
<polygon points="525.386,93.452 461.911,126.039 471.029,95.424 " />
<polygon points="307.470,346.154 325.885,324.027 250.805,317.916 " />
<polygon points="460.676,875.463 471.090,923.589 458.951,926.101 " />
<polygon points="588.395,498.016 603.894,641.834 597.449,622.507 " />
<polygon points="334.667,328.016 307.470,346.154 249.353,319.501 " />
<polygon points="307.470,346.154 250.805,317.916 245.358,325.983 " />
<polygon points="249.353,319.501 307.470,346.154 245.358,325.983 " />
<polygon points="460.676,875.463 469.009,859.183 471.090,923.589 " />
<polygon points="684.412,290.490 680.044,254.351 750.790,268.418 " />
<polygon points="684.412,290.490 750.790,268.418 750.804,293.220 " />
<polygon points="703.538,346.418 684.412,290.490 750.804,293.220 " />
<polygon points="492.878,554.025 561.999,511.139 563.363,581.510 " />
<polygon points="474.851,773.320 483.694,794.018 469.009,859.183 " />
<polygon points="437.895,862.883 429.979,874.466 429.761,944.643 " />
<polygon points="571.445,772.499 574.612,715.841 581.361,794.018 " />
<polygon points="703.538,346.418 750.804,293.220 753.713,317.407 " />
<polygon points="676.149,291.653 665.937,326.385 744.235,319.209 " />
<polygon points="676.149,291.653 744.235,319.209 744.717,295.123 " />
<polygon points="681.497,254.644 676.149,291.653 744.717,295.123 " />
<polygon points="681.497,254.644 744.717,295.123 749.741,269.905 " />
<polygon points="540.128,922.670 530.416,943.564 535.232,952.940 " />
<polygon points="452.324,673.900 412.338,657.164 430.010,742.644 " />
<polygon points="437.283,922.710 430.501,952.991 465.027,948.701 " />
<polygon points="477.373,209.758 523.184,210.539 536.110,188.628 " />
<polygon points="323.017,292.166 320.719,254.264 250.770,268.355 " />
<polygon points="323.017,292.166 250.770,268.355 255.032,292.000 " />
<polygon points="325.885,324.027 323.017,292.166 255.032,292.000 " />
<polygon points="325.885,324.027 255.032,292.000 250.805,317.916 " />
<polygon points="482.703,217.227 460.530,227.179 471.368,212.029 " />
<polygon points="463.688,926.805 437.283,922.710 465.027,948.701 " />
<polygon points="549.504,125.025 525.205,147.876 525.386,93.452 " />
<polygon points="500.881,641.806 512.159,588.379 520.154,713.654 " />
<polygon points="314.700,290.541 334.667,328.016 249.353,319.501 " />
<polygon points="314.700,290.541 249.353,319.501 248.857,294.721 " />
<polygon points="315.546,254.625 314.700,290.541 248.857,294.721 " />
<polygon points="315.546,254.625 248.857,294.721 248.156,269.590 " />
<polygon points="495.751,218.770 523.184,210.539 477.373,209.758 " />
<polygon points="429.979,874.466 458.951,926.101 429.761,944.643 " />
<polygon points="429.921,526.992 455.435,564.281 463.430,493.031 " />
<polygon points="544.888,187.209 525.205,147.876 549.504,125.025 " />
<polygon points="683.781,233.928 681.497,254.644 749.741,269.905 " />
<polygon points="683.781,233.928 749.741,269.905 752.236,261.358 " />
<polygon points="680.044,254.351 683.781,233.928 752.236,261.358 " />
<polygon points="680.044,254.351 752.236,261.358 750.790,268.418 " />
<polygon points="471.090,923.589 469.009,859.183 463.688,926.805 " />
<polygon points="569.970,868.108 540.128,922.670 573.471,922.796 " />
<polygon points="561.999,511.139 492.878,554.025 495.080,497.316 " />
<polygon points="437.283,922.710 426.019,943.565 430.501,952.991 " />
<polygon points="315.874,234.089 315.546,254.625 248.156,269.590 " />
<polygon points="315.874,234.089 248.156,269.590 247.376,261.425 " />
<polygon points="320.719,254.264 315.874,234.089 247.376,261.425 " />
<polygon points="320.719,254.264 247.376,261.425 250.770,268.355 " />
<polygon points="753.713,317.407 897.763,284.799 890.715,309.453 " />
<polygon points="480.157,178.261 452.984,183.570 461.911,126.039 " />
<polygon points="550.094,678.316 531.088,862.541 551.051,861.843 " />
<polygon points="581.361,794.018 567.605,737.243 569.970,868.108 " />
<polygon points="409.767,507.149 434.340,523.672 435.232,577.989 " />
<polygon points="435.232,577.989 492.878,554.025 478.120,713.932 " />
<polygon points="435.232,577.989 478.120,713.932 437.291,710.032 " />
<polygon points="534.647,944.723 562.460,926.014 563.360,950.077 " />
<polygon points="429.761,944.643 458.951,926.101 458.311,950.163 " />
<polygon points="474.778,144.100 525.079,89.547 473.224,90.323 " />
<polygon points="551.051,861.843 531.088,862.541 540.128,922.670 " />
<polygon points="437.895,862.883 429.761,944.643 426.019,943.565 " />
<polygon points="492.878,554.025 499.579,563.033 498.777,642.188 " />
<polygon points="412.338,657.164 396.487,647.965 424.243,724.009 " />
<polygon points="412.338,657.164 424.243,724.009 430.010,742.644 " />
<polygon points="434.340,523.672 492.878,554.025 435.232,577.989 " />
<polygon points="523.184,210.539 526.202,215.172 544.888,187.209 " />
<polygon points="471.368,212.029 477.373,209.758 465.266,190.389 " />
<polygon points="471.368,212.029 465.266,190.389 452.984,183.570 " />
<polygon points="526.202,215.172 510.205,216.042 525.205,147.876 " />
<polygon points="403.149,615.104 435.232,577.989 437.291,710.032 " />
<polygon points="419.150,454.853 409.767,507.149 403.149,615.104 " />
<polygon points="419.150,454.853 403.149,615.104 396.487,647.965 " />
<polygon points="409.767,507.149 435.232,577.989 403.149,615.104 " />
<polygon points="499.579,563.033 492.878,554.025 512.159,588.379 " />
<polygon points="430.010,742.644 421.625,783.984 429.979,874.466 " />
<polygon points="455.435,564.281 412.338,657.164 452.324,673.900 " />
<polygon points="447.058,133.632 474.778,144.100 473.224,90.323 " />
<polygon points="567.605,737.243 550.094,678.316 551.051,861.843 " />
<polygon points="504.193,569.299 499.579,563.033 500.881,641.806 " />
<polygon points="452.324,673.900 430.010,742.644 437.895,862.883 " />
<polygon points="499.579,563.033 504.193,569.299 488.731,592.613 " />
<polygon points="749.741,269.905 744.717,295.123 889.271,304.109 " />
<polygon points="480.157,178.261 461.911,126.039 525.205,147.876 " />
<polygon points="540.128,922.670 535.232,952.940 568.995,948.816 " />
<polygon points="750.804,293.220 750.790,268.418 897.763,284.799 " />
<polygon points="561.999,511.139 588.395,498.016 597.449,622.507 " />
<polygon points="531.088,862.541 530.416,943.564 540.128,922.670 " />
<polygon points="247.376,261.425 248.156,269.590 105.235,277.985 " />
<polygon points="519.044,785.349 561.625,876.769 535.682,872.981 " />
<polygon points="250.805,317.916 101.478,284.799 108.526,309.453 " />
<polygon points="469.009,859.183 437.895,862.883 437.283,922.710 " />
<polygon points="603.894,641.834 587.033,657.378 567.605,737.243 " />
<polygon points="523.184,210.539 544.888,187.209 536.110,188.628 " />
<polygon points="569.970,868.108 551.051,861.843 540.128,922.670 " />
<polygon points="458.951,926.101 471.090,923.589 458.311,950.163 " />
<polygon points="429.921,526.992 396.487,647.965 412.338,657.164 " />
<polygon points="542.706,707.464 597.449,622.507 574.612,715.841 " />
<polygon points="526.202,215.172 525.205,147.876 544.888,187.209 " />
<polygon points="603.894,641.834 567.605,737.243 574.612,715.841 " />
<polygon points="749.741,269.905 889.271,304.109 894.005,277.985 " />
<polygon points="549.504,125.025 525.386,93.452 525.079,89.547 " />
<polygon points="526.787,760.214 520.154,713.654 519.044,785.349 " />
<polygon points="512.159,588.379 563.363,581.510 542.706,707.464 " />
<polygon points="512.159,588.379 542.706,707.464 520.154,713.654 " />
<polygon points="542.706,707.464 574.612,715.841 571.445,772.499 " />
<polygon points="437.291,710.032 478.120,713.932 474.851,773.320 " />
<polygon points="482.703,217.227 471.368,212.029 452.984,183.570 " />
<polygon points="482.703,217.227 452.984,183.570 480.157,178.261 " />
<polygon points="488.731,592.613 455.435,564.281 452.324,673.900 " />
<polygon points="567.605,737.243 551.051,861.843 569.970,868.108 " />
<polygon points="463.430,493.031 504.193,569.299 545.007,531.521 " />
<polygon points="504.193,569.299 455.435,564.281 488.731,592.613 " />
<polygon points="561.999,511.139 597.449,622.507 563.363,581.510 " />
<polygon points="572.013,534.379 545.007,531.521 587.033,657.378 " />
<polygon points="474.851,773.320 469.009,859.183 460.676,875.463 " />
<polygon points="452.984,183.570 465.266,190.389 447.058,133.632 " />
<polygon points="471.029,95.424 447.058,133.632 473.224,90.323 " />
<polygon points="751.043,326.424 753.713,317.407 890.715,309.453 " />
<polygon points="525.205,147.876 461.911,126.039 525.386,93.452 " />
<polygon points="744.235,319.209 751.043,326.424 890.715,309.453 " />
<polygon points="744.235,319.209 890.715,309.453 889.271,304.109 " />
<polygon points="458.311,950.163 471.090,923.589 465.027,948.701 " />
<polygon points="426.019,943.565 429.761,944.643 430.501,952.991 " />
<polygon points="890.715,309.453 897.763,284.799 946.526,285.197 933.222,294.745 " />
<polygon points="897.763,284.799 894.005,277.985 935.809,274.960 946.526,285.197 " />
<polygon points="894.005,277.985 889.271,304.109 931.053,286.716 935.809,274.960 " />
<polygon points="889.271,304.109 890.715,309.453 933.222,294.745 931.053,286.716 " />
<polygon points="931.053,286.716 933.222,294.745 971.257,303.881 969.936,298.990 " />
<polygon points="935.809,274.960 931.053,286.716 969.936,298.990 974.111,291.263 " />
<polygon points="946.526,285.197 935.809,274.960 974.111,291.263 977.550,297.499 " />
<polygon points="933.222,294.745 946.526,285.197 977.550,297.499 971.257,303.881 " />
<polygon points="971.257,303.881 977.550,297.499 969.936,298.990 " />
<polygon points="977.550,297.499 974.111,291.263 969.936,298.990 " />
<polygon points="101.478,284.799 105.235,277.985 67.102,267.167 58.579,273.650 " />
<polygon points="108.526,309.453 101.478,284.799 58.579,273.650 56.470,283.595 " />
<polygon points="105.235,277.985 109.970,304.109 61.263,277.674 67.102,267.167 " />
<polygon points="109.970,304.109 108.526,309.453 56.470,283.595 61.263,277.674 " />
<polygon points="61.263,277.674 56.470,283.595 16.121,293.754 18.652,290.627 " />
<polygon points="67.102,267.167 61.263,277.674 18.652,290.627 21.263,281.491 " />
<polygon points="56.470,283.595 58.579,273.650 16.762,284.914 16.121,293.754 " />
<polygon points="58.579,273.650 67.102,267.167 21.263,281.491 16.762,284.914 " />
<polygon points="16.121,293.754 16.762,284.914 18.652,290.627 " />
<polygon points="16.762,284.914 21.263,281.491 18.652,290.627 " />
</g>
</svg>