<?xml version="1.0"?>
<!DOCTYPE svg PUBLIC "-//W3C//DTD SVG 1.1//EN" "http://www.w3.org/Graphics/SVG/1.1/DTD/svg11.dtd">
<svg width="1024px" height="1024px" viewBox="0 0 1024 1024" xmlns="http://www.w3.org/2000/svg" version="1.1">
<desc>UV-Map from Object: Soldado. Exported from Blender3D with UV Exportscript</desc>
<rect x="0" y="0" width="1024" height="1024" fill="none" stroke="blue" stroke-width="1px" />
<g style="fill:#F2DAF2; stroke:black; stroke-width:1px;">
<polygon points="579.100,383.202 608.859,328.612 597.311,345.643 " />
<polygon points="571.998,705.253 570.751,786.113 563.693,793.438 " />
<polygon points="599.442,594.745 572.479,503.866 585.182,607.891 " />
<polygon points="579.100,383.202 597.311,345.643 578.850,429.327 " />
<polygon points="585.182,607.891 553.942,625.599 568.751,675.436 " />
<polygon points="565.161,855.438 569.927,854.371 541.372,857.859 " />
<polygon points="578.850,429.327 597.311,345.643 590.170,334.857 " />
<polygon points="578.850,429.327 590.170,334.857 563.802,410.465 " />
<polygon points="482.199,212.941 542.115,211.451 528.336,190.831 " />
<polygon points="553.942,625.599 534.230,694.863 537.867,781.404 " />
<polygon points="588.865,272.446 533.735,233.900 544.922,243.606 " />
<polygon points="588.865,272.446 544.922,243.606 602.733,266.032 " />
<polygon points="573.712,832.365 545.513,832.258 569.927,854.371 " />
<polygon points="304.396,298.877 300.792,278.879 174.529,292.787 " />
<polygon points="492.438,229.321 542.115,211.451 482.199,212.941 " />
<polygon points="602.733,266.032 544.922,243.606 588.677,272.270 " />
<polygon points="445.290,714.966 471.579,698.168 478.317,792.334 " />
<polygon points="454.297,405.532 429.929,333.997 419.123,338.315 " />
<polygon points="454.297,405.532 419.123,338.315 443.197,436.608 " />
<polygon points="445.290,714.966 478.317,792.334 452.355,791.490 " />
<polygon points="542.115,211.451 549.539,210.251 553.442,157.660 " />
<polygon points="443.197,436.608 419.123,338.315 437.793,346.173 " />
<polygon points="505.551,520.481 510.540,595.044 493.070,655.721 " />
<polygon points="456.044,494.810 507.414,472.520 505.551,520.481 " />
<polygon points="452.306,497.618 454.297,405.532 443.197,436.608 " />
<polygon points="553.942,625.599 515.121,533.399 534.230,694.863 " />
<polygon points="425.530,279.172 478.194,244.055 418.201,266.234 " />
<polygon points="520.205,234.636 494.793,202.683 532.892,176.986 " />
<polygon points="571.998,705.253 580.385,723.452 570.751,786.113 " />
<polygon points="418.201,266.234 478.194,244.055 496.947,235.638 " />
<polygon points="496.947,235.638 421.089,275.209 418.201,266.234 " />
<polygon points="579.100,383.202 586.334,473.112 557.075,444.824 " />
<polygon points="528.336,190.831 542.115,211.451 545.498,162.066 " />
<polygon points="549.639,501.449 572.479,503.866 563.802,410.465 " />
<polygon points="458.540,652.423 471.579,698.168 445.290,714.966 " />
<polygon points="507.981,236.943 509.774,270.506 588.677,272.270 " />
<polygon points="507.981,236.943 588.677,272.270 544.922,243.606 " />
<polygon points="458.540,652.423 490.305,705.948 471.579,698.168 " />
<polygon points="454.297,405.532 480.647,468.896 502.138,398.589 " />
<polygon points="718.541,301.518 718.134,321.888 840.796,309.118 " />
<polygon points="474.547,322.483 549.567,336.988 579.474,296.804 " />
<polygon points="509.774,270.506 474.547,322.483 579.474,296.804 " />
<polygon points="490.305,705.948 493.070,655.721 497.784,723.452 " />
<polygon points="579.474,296.804 549.567,336.988 590.170,334.857 " />
<polygon points="528.619,655.485 547.693,650.251 553.225,697.961 " />
<polygon points="528.619,655.485 553.225,697.961 527.681,716.120 " />
<polygon points="509.774,270.506 579.474,296.804 588.677,272.270 " />
<polygon points="482.199,212.941 490.243,173.792 466.800,164.939 " />
<polygon points="502.138,398.589 563.802,410.465 549.567,336.988 " />
<polygon points="474.547,322.483 502.138,398.589 549.567,336.988 " />
<polygon points="296.215,327.617 300.821,320.795 180.490,313.638 " />
<polygon points="724.900,272.961 722.790,280.190 844.800,287.024 " />
<polygon points="549.567,336.988 563.802,410.465 590.170,334.857 " />
<polygon points="565.161,855.438 573.712,832.365 569.927,854.371 " />
<polygon points="480.647,468.896 473.885,529.155 515.121,533.399 " />
<polygon points="478.194,244.055 425.530,279.172 509.774,270.506 " />
<polygon points="478.194,244.055 509.774,270.506 507.981,236.943 " />
<polygon points="502.138,398.589 480.647,468.896 549.639,501.449 " />
<polygon points="528.336,190.831 545.498,162.066 490.243,173.792 " />
<polygon points="511.219,528.099 521.858,549.535 512.320,594.721 " />
<polygon points="299.174,301.178 299.593,322.135 181.712,309.118 " />
<polygon points="482.199,212.941 528.336,190.831 490.243,173.792 " />
<polygon points="533.045,130.957 488.930,128.311 532.785,127.655 " />
<polygon points="425.530,279.172 429.929,333.997 474.547,322.483 " />
<polygon points="549.639,501.449 515.121,533.399 553.942,625.599 " />
<polygon points="540.877,850.910 565.161,855.438 541.372,857.859 " />
<polygon points="425.530,279.172 474.547,322.483 509.774,270.506 " />
<polygon points="541.752,790.235 563.693,793.438 564.400,835.086 " />
<polygon points="456.044,494.810 464.186,443.052 507.414,472.520 " />
<polygon points="300.821,320.795 304.396,298.877 174.529,292.787 " />
<polygon points="586.334,473.112 578.850,429.327 599.442,594.745 " />
<polygon points="429.929,333.997 454.297,405.532 502.138,398.589 " />
<polygon points="429.929,333.997 502.138,398.589 474.547,322.483 " />
<polygon points="578.850,429.327 563.802,410.465 572.479,503.866 " />
<polygon points="435.261,480.836 464.186,443.052 456.044,494.810 " />
<polygon points="447.504,664.243 458.540,652.423 445.290,714.966 " />
<polygon points="507.981,236.943 544.922,243.606 531.183,229.982 " />
<polygon points="452.171,850.842 476.317,855.510 452.797,857.902 " />
<polygon points="541.752,790.235 564.400,835.086 540.877,850.910 " />
<polygon points="586.334,473.112 564.010,484.211 557.075,444.824 " />
<polygon points="557.075,444.824 564.010,484.211 507.414,472.520 " />
<polygon points="507.414,472.520 516.382,307.929 545.565,356.832 " />
<polygon points="507.414,472.520 545.565,356.832 557.075,444.824 " />
<polygon points="527.681,716.120 541.752,790.235 537.867,781.404 " />
<polygon points="545.565,356.832 608.859,328.612 579.100,383.202 " />
<polygon points="557.075,444.824 545.565,356.832 579.100,383.202 " />
<polygon points="586.334,473.112 579.100,383.202 578.850,429.327 " />
<polygon points="516.382,307.929 520.205,234.636 533.735,233.900 " />
<polygon points="520.205,234.636 496.947,235.638 494.793,202.683 " />
<polygon points="593.991,578.399 599.442,594.745 574.677,657.335 " />
<polygon points="510.540,595.044 502.044,553.117 487.326,685.396 " />
<polygon points="516.382,307.929 533.735,233.900 588.865,272.446 " />
<polygon points="516.382,307.929 588.865,272.446 608.129,301.487 " />
<polygon points="545.565,356.832 516.382,307.929 608.129,301.487 " />
<polygon points="545.565,356.832 608.129,301.487 608.859,328.612 " />
<polygon points="564.400,835.086 573.712,832.365 565.161,855.438 " />
<polygon points="545.498,162.066 553.442,157.660 532.785,127.655 " />
<polygon points="490.243,173.792 545.498,162.066 532.785,127.655 " />
<polygon points="547.693,650.251 571.998,705.253 553.225,697.961 " />
<polygon points="487.326,685.396 471.254,621.864 459.050,781.694 " />
<polygon points="452.381,680.003 452.355,791.490 459.050,781.694 " />
<polygon points="726.149,320.364 723.689,299.909 847.978,292.787 " />
<polygon points="424.030,599.930 429.664,572.138 458.540,652.423 " />
<polygon points="505.551,520.481 565.163,543.727 521.858,549.535 " />
<polygon points="534.230,694.863 527.681,716.120 537.867,781.404 " />
<polygon points="473.885,529.155 452.306,497.618 437.436,607.710 " />
<polygon points="437.793,346.173 474.765,314.713 464.186,443.052 " />
<polygon points="299.593,322.135 296.215,327.617 180.490,313.638 " />
<polygon points="299.593,322.135 180.490,313.638 181.712,309.118 " />
<polygon points="464.186,443.052 474.765,314.713 516.382,307.929 " />
<polygon points="464.186,443.052 516.382,307.929 507.414,472.520 " />
<polygon points="410.368,299.594 421.089,275.209 520.205,234.636 " />
<polygon points="410.368,299.594 520.205,234.636 474.765,314.713 " />
<polygon points="437.793,346.173 410.368,299.594 474.765,314.713 " />
<polygon points="435.261,480.836 437.793,346.173 464.186,443.052 " />
<polygon points="474.765,314.713 520.205,234.636 516.382,307.929 " />
<polygon points="515.121,533.399 528.619,655.485 534.230,694.863 " />
<polygon points="510.540,595.044 487.326,685.396 493.070,655.721 " />
<polygon points="443.197,436.608 437.793,346.173 435.261,480.836 " />
<polygon points="479.362,158.517 466.800,164.939 487.073,132.625 " />
<polygon points="421.089,275.209 496.947,235.638 520.205,234.636 " />
<polygon points="544.922,243.606 533.735,233.900 531.183,229.982 " />
<polygon points="487.124,833.035 480.865,835.755 481.997,854.274 " />
<polygon points="487.326,685.396 459.050,781.694 485.365,778.565 " />
<polygon points="585.182,607.891 549.639,501.449 553.942,625.599 " />
<polygon points="537.299,849.929 540.877,850.910 541.372,857.859 " />
<polygon points="533.045,130.957 487.073,132.625 488.930,128.311 " />
<polygon points="478.194,244.055 507.981,236.943 492.438,229.321 " />
<polygon points="300.792,278.879 297.921,273.018 177.707,287.024 " />
<polygon points="425.530,279.172 418.201,266.234 359.950,266.962 " />
<polygon points="418.201,266.234 421.089,275.209 355.575,267.267 " />
<polygon points="418.201,266.234 355.575,267.267 355.853,249.899 " />
<polygon points="359.950,266.962 418.201,266.234 355.853,249.899 " />
<polygon points="563.693,793.438 570.751,786.113 573.712,832.365 " />
<polygon points="602.733,266.032 588.677,272.270 665.074,267.284 " />
<polygon points="424.030,599.930 458.540,652.423 447.504,664.243 " />
<polygon points="452.355,791.490 478.317,792.334 476.858,835.160 " />
<polygon points="588.865,272.446 602.733,266.032 663.845,267.035 " />
<polygon points="515.121,533.399 512.320,594.721 528.619,655.485 " />
<polygon points="602.733,266.032 665.074,267.284 667.005,249.763 " />
<polygon points="663.845,267.035 602.733,266.032 667.005,249.763 " />
<polygon points="574.677,657.335 568.751,675.436 580.385,723.452 " />
<polygon points="410.368,299.594 437.793,346.173 371.746,329.336 " />
<polygon points="553.225,697.961 571.998,705.253 563.693,793.438 " />
<polygon points="471.812,207.173 466.800,164.939 479.362,158.517 " />
<polygon points="502.138,398.589 549.639,501.449 563.802,410.465 " />
<polygon points="527.681,716.120 553.225,697.961 563.693,793.438 " />
<polygon points="410.368,299.594 371.746,329.336 354.860,297.643 " />
<polygon points="421.089,275.209 410.368,299.594 354.860,297.643 " />
<polygon points="421.089,275.209 354.860,297.643 355.575,267.267 " />
<polygon points="459.050,781.694 449.007,849.930 458.533,832.292 " />
<polygon points="425.530,279.172 359.950,266.962 361.894,299.017 " />
<polygon points="429.929,333.997 425.530,279.172 361.894,299.017 " />
<polygon points="429.929,333.997 361.894,299.017 364.319,325.964 " />
<polygon points="563.693,793.438 573.712,832.365 564.400,835.086 " />
<polygon points="542.115,211.451 553.442,157.660 545.498,162.066 " />
<polygon points="452.306,497.618 443.197,436.608 424.030,599.930 " />
<polygon points="537.867,781.404 541.752,790.235 540.877,850.910 " />
<polygon points="579.474,296.804 590.170,334.857 651.914,327.957 " />
<polygon points="579.474,296.804 651.914,327.957 660.550,298.584 " />
<polygon points="588.677,272.270 579.474,296.804 660.550,298.584 " />
<polygon points="588.677,272.270 660.550,298.584 665.074,267.284 " />
<polygon points="298.581,279.924 299.174,301.178 181.712,309.118 " />
<polygon points="511.219,528.099 502.044,553.117 510.540,595.044 " />
<polygon points="537.867,781.404 540.877,850.910 537.299,849.929 " />
<polygon points="476.317,855.510 481.997,854.274 452.797,857.902 " />
<polygon points="608.129,301.487 588.865,272.446 663.845,267.035 " />
<polygon points="452.381,680.003 447.504,664.243 445.290,714.966 " />
<polygon points="502.044,553.117 471.254,621.864 487.326,685.396 " />
<polygon points="565.163,543.727 593.991,578.399 547.693,650.251 " />
<polygon points="493.070,655.721 487.326,685.396 497.784,723.452 " />
<polygon points="608.129,301.487 663.845,267.035 667.539,297.599 " />
<polygon points="608.859,328.612 608.129,301.487 667.539,297.599 " />
<polygon points="608.859,328.612 667.539,297.599 673.636,331.462 " />
<polygon points="419.123,338.315 429.929,333.997 364.319,325.964 " />
<polygon points="300.792,278.879 177.707,287.024 174.529,292.787 " />
<polygon points="497.784,723.452 487.326,685.396 485.365,778.565 " />
<polygon points="437.793,346.173 419.123,338.315 371.746,329.336 " />
<polygon points="599.442,594.745 578.850,429.327 572.479,503.866 " />
<polygon points="419.123,338.315 364.319,325.964 348.745,344.677 " />
<polygon points="371.746,329.336 419.123,338.315 348.745,344.677 " />
<polygon points="485.365,778.565 458.533,832.292 480.865,835.755 " />
<polygon points="597.311,345.643 608.859,328.612 648.978,339.617 " />
<polygon points="590.170,334.857 597.311,345.643 648.978,339.617 " />
<polygon points="590.170,334.857 648.978,339.617 651.914,327.957 " />
<polygon points="648.978,339.617 608.859,328.612 673.636,331.462 " />
<polygon points="723.677,278.932 724.900,272.961 844.800,287.024 " />
<polygon points="723.677,278.932 844.800,287.024 847.978,292.787 " />
<polygon points="454.297,405.532 452.306,497.618 480.647,468.896 " />
<polygon points="471.579,698.168 490.305,705.948 478.317,792.334 " />
<polygon points="648.978,339.617 673.636,331.462 723.891,327.990 " />
<polygon points="651.914,327.957 648.978,339.617 723.891,327.990 " />
<polygon points="651.914,327.957 723.891,327.990 718.134,321.888 " />
<polygon points="723.891,327.990 673.636,331.462 726.149,320.364 " />
<polygon points="478.194,244.055 492.438,229.321 487.360,231.242 " />
<polygon points="298.581,279.924 181.712,309.118 177.707,287.024 " />
<polygon points="533.045,130.957 479.362,158.517 487.073,132.625 " />
<polygon points="348.745,344.677 364.319,325.964 300.821,320.795 " />
<polygon points="478.317,792.334 487.124,833.035 476.858,835.160 " />
<polygon points="586.334,473.112 599.442,594.745 593.991,578.399 " />
<polygon points="371.746,329.336 348.745,344.677 299.593,322.135 " />
<polygon points="348.745,344.677 300.821,320.795 296.215,327.617 " />
<polygon points="299.593,322.135 348.745,344.677 296.215,327.617 " />
<polygon points="478.317,792.334 485.365,778.565 487.124,833.035 " />
<polygon points="667.539,297.599 663.845,267.035 723.677,278.932 " />
<polygon points="667.539,297.599 723.677,278.932 723.689,299.909 " />
<polygon points="673.636,331.462 667.539,297.599 723.689,299.909 " />
<polygon points="505.551,520.481 564.010,484.211 565.163,543.727 " />
<polygon points="490.305,705.948 497.784,723.452 485.365,778.565 " />
<polygon points="459.050,781.694 452.355,791.490 452.171,850.842 " />
<polygon points="571.998,705.253 574.677,657.335 580.385,723.452 " />
<polygon points="673.636,331.462 723.689,299.909 726.149,320.364 " />
<polygon points="660.550,298.584 651.914,327.957 718.134,321.888 " />
<polygon points="660.550,298.584 718.134,321.888 718.541,301.518 " />
<polygon points="665.074,267.284 660.550,298.584 718.541,301.518 " />
<polygon points="665.074,267.284 718.541,301.518 722.790,280.190 " />
<polygon points="545.513,832.258 537.299,849.929 541.372,857.859 " />
<polygon points="471.254,621.864 437.436,607.710 452.381,680.003 " />
<polygon points="458.533,832.292 452.797,857.902 481.997,854.274 " />
<polygon points="492.438,229.321 531.183,229.982 542.115,211.451 " />
<polygon points="361.894,299.017 359.950,266.962 300.792,278.879 " />
<polygon points="361.894,299.017 300.792,278.879 304.396,298.877 " />
<polygon points="364.319,325.964 361.894,299.017 304.396,298.877 " />
<polygon points="364.319,325.964 304.396,298.877 300.821,320.795 " />
<polygon points="496.947,235.638 478.194,244.055 487.360,231.242 " />
<polygon points="480.865,835.755 458.533,832.292 481.997,854.274 " />
<polygon points="553.442,157.660 532.892,176.986 533.045,130.957 " />
<polygon points="512.320,594.721 521.858,549.535 528.619,655.485 " />
<polygon points="354.860,297.643 371.746,329.336 299.593,322.135 " />
<polygon points="354.860,297.643 299.593,322.135 299.174,301.178 " />
<polygon points="355.575,267.267 354.860,297.643 299.174,301.178 " />
<polygon points="355.575,267.267 299.174,301.178 298.581,279.924 " />
<polygon points="507.981,236.943 531.183,229.982 492.438,229.321 " />
<polygon points="452.355,791.490 476.858,835.160 452.171,850.842 " />
<polygon points="452.306,497.618 473.885,529.155 480.647,468.896 " />
<polygon points="549.539,210.251 532.892,176.986 553.442,157.660 " />
<polygon points="667.005,249.763 665.074,267.284 722.790,280.190 " />
<polygon points="667.005,249.763 722.790,280.190 724.900,272.961 " />
<polygon points="663.845,267.035 667.005,249.763 724.900,272.961 " />
<polygon points="663.845,267.035 724.900,272.961 723.677,278.932 " />
<polygon points="487.124,833.035 485.365,778.565 480.865,835.755 " />
<polygon points="570.751,786.113 545.513,832.258 573.712,832.365 " />
<polygon points="564.010,484.211 505.551,520.481 507.414,472.520 " />
<polygon points="458.533,832.292 449.007,849.930 452.797,857.902 " />
<polygon points="355.853,249.899 355.575,267.267 298.581,279.924 " />
<polygon points="355.853,249.899 298.581,279.924 297.921,273.018 " />
<polygon points="359.950,266.962 355.853,249.899 297.921,273.018 " />
<polygon points="359.950,266.962 297.921,273.018 300.792,278.879 " />
<polygon points="726.149,320.364 847.978,292.787 842.017,313.638 " />
<polygon points="494.793,202.683 471.812,207.173 479.362,158.517 " />
<polygon points="553.942,625.599 537.867,781.404 554.751,780.815 " />
<polygon points="580.385,723.452 568.751,675.436 570.751,786.113 " />
<polygon points="435.261,480.836 456.044,494.810 456.798,540.748 " />
<polygon points="456.798,540.748 505.551,520.481 493.070,655.721 " />
<polygon points="456.798,540.748 493.070,655.721 458.540,652.423 " />
<polygon points="540.877,850.910 564.400,835.086 565.161,855.438 " />
<polygon points="452.171,850.842 476.858,835.160 476.317,855.510 " />
<polygon points="490.243,173.792 532.785,127.655 488.930,128.311 " />
<polygon points="554.751,780.815 537.867,781.404 545.513,832.258 " />
<polygon points="459.050,781.694 452.171,850.842 449.007,849.930 " />
<polygon points="505.551,520.481 511.219,528.099 510.540,595.044 " />
<polygon points="437.436,607.710 424.030,599.930 447.504,664.243 " />
<polygon points="437.436,607.710 447.504,664.243 452.381,680.003 " />
<polygon points="456.044,494.810 505.551,520.481 456.798,540.748 " />
<polygon points="531.183,229.982 533.735,233.900 549.539,210.251 " />
<polygon points="487.360,231.242 492.438,229.321 482.199,212.941 " />
<polygon points="487.360,231.242 482.199,212.941 471.812,207.173 " />
<polygon points="533.735,233.900 520.205,234.636 532.892,176.986 " />
<polygon points="429.664,572.138 456.798,540.748 458.540,652.423 " />
<polygon points="443.197,436.608 435.261,480.836 429.664,572.138 " />
<polygon points="443.197,436.608 429.664,572.138 424.030,599.930 " />
<polygon points="435.261,480.836 456.798,540.748 429.664,572.138 " />
<polygon points="511.219,528.099 505.551,520.481 521.858,549.535 " />
<polygon points="452.381,680.003 445.290,714.966 452.355,791.490 " />
<polygon points="473.885,529.155 437.436,607.710 471.254,621.864 " />
<polygon points="466.800,164.939 490.243,173.792 488.930,128.311 " />
<polygon points="568.751,675.436 553.942,625.599 554.751,780.815 " />
<polygon points="515.121,533.399 511.219,528.099 512.320,594.721 " />
<polygon points="471.254,621.864 452.381,680.003 459.050,781.694 " />
<polygon points="511.219,528.099 515.121,533.399 502.044,553.117 " />
<polygon points="722.790,280.190 718.541,301.518 840.796,309.118 " />
<polygon points="494.793,202.683 479.362,158.517 532.892,176.986 " />
<polygon points="545.513,832.258 541.372,857.859 569.927,854.371 " />
<polygon points="723.689,299.909 723.677,278.932 847.978,292.787 " />
<polygon points="564.010,484.211 586.334,473.112 593.991,578.399 " />
<polygon points="537.867,781.404 537.299,849.929 545.513,832.258 " />
<polygon points="297.921,273.018 298.581,279.924 177.707,287.024 " />
<polygon points="527.681,716.120 563.693,793.438 541.752,790.235 " />
<polygon points="300.821,320.795 174.529,292.787 180.490,313.638 " />
<polygon points="485.365,778.565 459.050,781.694 458.533,832.292 " />
<polygon points="599.442,594.745 585.182,607.891 568.751,675.436 " />
<polygon points="531.183,229.982 549.539,210.251 542.115,211.451 " />
<polygon points="570.751,786.113 554.751,780.815 545.513,832.258 " />
<polygon points="476.858,835.160 487.124,833.035 476.317,855.510 " />
<polygon points="452.306,497.618 424.030,599.930 437.436,607.710 " />
<polygon points="547.693,650.251 593.991,578.399 574.677,657.335 " />
<polygon points="533.735,233.900 532.892,176.986 549.539,210.251 " />
<polygon points="599.442,594.745 568.751,675.436 574.677,657.335 " />
<polygon points="722.790,280.190 840.796,309.118 844.800,287.024 " />
<polygon points="553.442,157.660 533.045,130.957 532.785,127.655 " />
<polygon points="534.230,694.863 528.619,655.485 527.681,716.120 " />
<polygon points="521.858,549.535 565.163,543.727 547.693,650.251 " />
<polygon points="521.858,549.535 547.693,650.251 528.619,655.485 " />
<polygon points="547.693,650.251 574.677,657.335 571.998,705.253 " />
<polygon points="458.540,652.423 493.070,655.721 490.305,705.948 " />
<polygon points="496.947,235.638 487.360,231.242 471.812,207.173 " />
<polygon points="496.947,235.638 471.812,207.173 494.793,202.683 " />
<polygon points="502.044,553.117 473.885,529.155 471.254,621.864 " />
<polygon points="568.751,675.436 554.751,780.815 570.751,786.113 " />
<polygon points="480.647,468.896 515.121,533.399 549.639,501.449 " />
<polygon points="515.121,533.399 473.885,529.155 502.044,553.117 " />
<polygon points="564.010,484.211 593.991,578.399 565.163,543.727 " />
<polygon points="572.479,503.866 549.639,501.449 585.182,607.891 " />
<polygon points="490.305,705.948 485.365,778.565 478.317,792.334 " />
<polygon points="471.812,207.173 482.199,212.941 466.800,164.939 " />
<polygon points="487.073,132.625 466.800,164.939 488.930,128.311 " />
<polygon points="723.891,327.990 726.149,320.364 842.017,313.638 " />
<polygon points="532.892,176.986 479.362,158.517 533.045,130.957 " />
<polygon points="718.134,321.888 723.891,327.990 842.017,313.638 " />
<polygon points="718.134,321.888 842.017,313.638 840.796,309.118 " />
<polygon points="476.317,855.510 487.124,833.035 481.997,854.274 " />
<polygon points="449.007,849.930 452.171,850.842 452.797,857.902 " />
<polygon points="842.017,313.638 847.978,292.787 889.219,293.123 877.967,301.199 " />
<polygon points="847.978,292.787 844.800,287.024 880.155,284.465 889.219,293.123 " />
<polygon points="844.800,287.024 840.796,309.118 876.133,294.408 880.155,284.465 " />
<polygon points="840.796,309.118 842.017,313.638 877.967,301.199 876.133,294.408 " />
<polygon points="876.133,294.408 877.967,301.199 910.135,308.925 909.017,304.788 " />
<polygon points="880.155,284.465 876.133,294.408 909.017,304.788 912.549,298.254 " />
<polygon points="889.219,293.123 880.155,284.465 912.549,298.254 915.457,303.528 " />
<polygon points="877.967,301.199 889.219,293.123 915.457,303.528 910.135,308.925 " />
<polygon points="910.135,308.925 915.457,303.528 909.017,304.788 " />
<polygon points="915.457,303.528 912.549,298.254 909.017,304.788 " />
<polygon points="174.529,292.787 177.707,287.024 145.457,277.874 138.249,283.357 " />
<polygon points="180.490,313.638 174.529,292.787 138.249,283.357 136.465,291.768 " />
<polygon points="177.707,287.024 181.712,309.118 140.518,286.761 145.457,277.874 " />
<polygon points="181.712,309.118 180.490,313.638 136.465,291.768 140.518,286.761 " />
<polygon points="140.518,286.761 136.465,291.768 102.340,300.360 104.480,297.715 " />
<polygon points="145.457,277.874 140.518,286.761 104.480,297.715 106.689,289.989 " />
<polygon points="136.465,291.768 138.249,283.357 102.882,292.884 102.340,300.360 " />
<polygon points="138.249,283.357 145.457,277.874 106.689,289.989 102.882,292.884 " />
<polygon points="102.340,300.360 102.882,292.884 104.480,297.715 " />
<polygon points="102.882,292.884 106.689,289.989 104.480,297.715 " />
</g>
</svg>